<svg id="svg" version="1.1" xmlns="http://www.w3.org/2000/svg" xmlns:xlink="http://www.w3.org/1999/xlink" width="400" height="255.1020408163265"
     viewBox="0, 0, 400,255.1020408163265"><g id="svgg">
    <path id="path0" d="M100.306 1.327 C 100.073 1.559,100.000 6.381,100.000 21.471 C 100.000 40.823,99.988 41.315,99.507
     41.573 C 99.171 41.752,83.270 41.837,49.910 41.837 C 22.903 41.837,0.625 41.906,0.404 41.992 C -0.045 42.164,-0.153
     42.857,0.268 42.857 C 0.416 42.857,0.710 43.288,0.922 43.814 C 1.738 45.839,2.070 46.588,2.557 47.500 C 2.834
     48.018,3.061 48.615,3.061 48.825 C 3.061 49.036,3.320 49.702,3.635 50.305 C 3.951 50.909,4.381 51.862,4.592 52.423
     C 4.802 52.985,5.233 53.938,5.548 54.542 C 5.864 55.145,6.122 55.837,6.122 56.079 C 6.122 56.321,6.280 56.746,6.473
     57.022 C 6.665 57.299,7.170 58.386,7.595 59.439 C 8.019 60.491,8.550 61.696,8.773 62.117 C 8.997 62.538,9.181 63.032,9.182 63.215 C 9.183 63.397,9.405 63.971,9.675 64.490 C 9.945 65.009,10.642 66.582,11.224 67.985 C 11.807 69.388,12.504 70.960,12.774 71.479 C 13.044 71.998,13.265 72.633,13.265 72.889 C 13.265 73.146,13.437 73.601,13.647 73.900 C 13.856 74.200,14.388 75.345,14.827 76.444 C 15.266 77.544,15.784 78.670,15.976 78.947 C 16.169 79.224,16.327 79.686,16.327 79.974 C 16.327 80.263,16.498 80.744,16.708 81.043 C 16.918 81.343,17.428 82.434,17.842 83.468 C 18.256 84.502,18.773 85.688,18.990 86.105 C 19.207 86.521,19.385 87.012,19.386 87.194 C 19.387 87.377,19.616 87.951,19.896 88.470 C 20.176 88.989,20.867 90.561,21.433 91.964 C 21.998 93.367,22.678 94.974,22.943 95.536 C 23.209 96.097,23.733 97.302,24.108 98.214 C 24.483 99.126,24.954 100.274,25.156 100.765 C 25.358 101.256,25.750 102.083,26.027 102.602 C 26.304 103.120,26.531 103.717,26.531 103.927 C 26.531 104.138,26.789 104.804,27.105 105.407 C 27.420 106.011,27.851 106.964,28.061 107.526 C 28.272 108.087,28.702 109.040,29.018 109.644 C 29.334 110.247,29.592 110.939,29.592 111.181 C 29.592 111.423,29.749 111.848,29.942 112.124 C 30.135 112.401,30.640 113.489,31.064 114.541 C 31.489 115.593,32.019 116.798,32.243 117.219 C 32.467 117.640,32.651 118.134,32.651 118.317 C 32.652 118.499,32.874 119.073,33.144 119.592 C 33.414 120.111,34.112 121.684,34.694 123.087 C 35.276 124.490,35.974 126.062,36.244 126.581 C 36.514 127.100,36.735 127.735,36.735 127.991 C 36.735 128.248,36.906 128.703,37.116 129.002 C 37.326 129.302,37.857 130.447,38.296 131.546 C 38.736 132.646,39.253 133.772,39.446 134.049 C 39.638 134.326,39.796 134.788,39.796 135.077 C 39.796 135.365,39.968 135.846,40.177 136.145 C 40.387 136.445,40.897 137.536,41.311 138.570 C 41.725 139.604,42.242 140.790,42.459 141.207 C 42.676 141.623,42.855 142.140,42.856 142.354 C 42.856 142.568,43.019 142.975,43.217 143.257 C 43.948 144.301,45.431 148.506,45.265 149.065 C 45.070 149.719,44.029 152.257,43.363 153.699 C 43.105 154.260,42.418 155.867,41.837 157.270 C 41.257 158.673,40.338 160.855,39.795 162.117 C 39.252 163.380,38.274 165.676,37.622 167.219 C 36.970 168.763,36.217 170.492,35.948 171.063 C 35.679 171.633,35.459 172.197,35.459 172.316 C 35.459 172.435,35.057 173.379,34.566 174.414 C 34.075 175.449,33.673 176.421,33.673 176.574 C 33.673 176.727,33.457 177.211,33.192 177.648 C 32.928 178.086,32.630 178.731,32.530 179.082 C 32.430 179.432,31.958 180.556,31.480 181.579 C 31.003 182.601,30.611 183.577,30.611 183.747 C 30.610 183.917,30.381 184.401,30.102 184.821 C 29.823 185.242,29.594 185.737,29.594 185.921 C 29.593 186.105,29.295 186.909,28.932 187.707 C 28.569 188.505,28.122 189.503,27.939 189.923 C 27.756 190.344,27.364 191.218,27.068 191.865 C 26.773 192.511,26.531 193.177,26.531 193.345 C 26.531 193.512,26.310 194.073,26.040 194.592 C 25.769 195.111,25.070 196.684,24.486 198.087 C 23.902 199.490,23.215 201.097,22.959 201.658 C 22.704 202.219,22.015 203.827,21.429 205.230 C 20.842 206.633,20.151 208.240,19.893 208.801 C 19.635 209.362,18.948 210.969,18.368 212.372 C 17.787 213.776,16.868 215.957,16.325 217.219 C 15.782 218.482,14.805 220.778,14.153 222.321 C 13.501 223.865,12.748 225.594,12.479 226.165 C 12.210 226.735,11.990 227.299,11.990 227.418 C 11.990 227.537,11.588 228.481,11.097 229.516 C 10.606 230.551,10.204 231.523,10.204 231.676 C 10.204 231.830,9.988 232.313,9.723 232.751 C 9.458 233.188,9.160 233.833,9.061 234.184 C 8.961 234.534,8.489 235.658,8.011 236.681 C 7.534 237.703,7.142 238.679,7.141 238.849 C 7.140 239.019,6.911 239.503,6.633 239.923 C 6.354 240.344,6.125 240.839,6.124 241.023 C 6.123 241.208,5.825 242.011,5.463 242.809 C 5.100 243.607,4.653 244.605,4.470 245.026 C 4.286 245.446,3.895 246.320,3.599 246.967 C 3.303 247.613,3.061 248.279,3.061 248.447 C 3.061 248.614,2.840 249.175,2.569 249.694 C 2.298 250.213,1.768 251.384,1.392 252.296 C 1.016 253.208,0.548 254.082,0.354 254.237 C -0.199 254.680,-0.063 255.102,0.633 255.102 C 1.113 255.102,1.306 254.933,1.432 254.401 C 1.524 254.015,1.747 253.527,1.928 253.316 C 2.108 253.106,2.337 252.589,2.436 252.168 C 2.535 251.747,2.815 251.059,3.058 250.638 C 3.301 250.217,3.757 249.184,4.073 248.342 C 4.388 247.500,4.880 246.295,5.164 245.663 C 5.449 245.032,5.883 244.056,6.130 243.495 C 6.376 242.934,6.819 241.945,7.115 241.299 C 7.411 240.652,7.653 239.986,7.653 239.819 C 7.653 239.651,7.883 239.061,8.163 238.507 C 8.444 237.953,8.903 237.047,9.184 236.493 C 9.464 235.939,9.694 235.240,9.694 234.939 C 9.694 234.638,9.923 234.100,10.204 233.743 C 10.485 233.386,10.714 232.932,10.714 232.733 C 10.714 232.534,10.944 231.918,11.224 231.364 C 11.505 230.810,11.964 229.904,12.245 229.350 C 12.526 228.796,12.755 228.097,12.755 227.796 C 12.755 227.495,12.985 226.957,13.265 226.600 C 13.546 226.243,13.776 225.789,13.776 225.590 C 13.776 225.391,13.990 224.804,14.252 224.285 C 15.381 222.052,15.818 221.016,15.817 220.576 C 15.817 220.317,16.046 219.814,16.327 219.457 C 16.607 219.101,16.837 218.641,16.837 218.435 C 16.837 218.229,17.296 217.095,17.857 215.913 C 18.418 214.732,18.878 213.585,18.878 213.364 C 18.878 213.144,19.107 212.671,19.388 212.315 C 19.668 211.958,19.898 211.474,19.898 211.239 C 19.898 211.004,20.290 210.015,20.770 209.041 C 21.250 208.067,21.726 206.926,21.829 206.505 C 21.932 206.084,22.229 205.466,22.488 205.131 C 22.747 204.797,22.959 204.331,22.959 204.096 C 22.959 203.861,23.352 202.872,23.831 201.898 C 24.311 200.924,24.786 199.783,24.886 199.362 C 24.986 198.941,25.216 198.425,25.397 198.214 C 25.578 198.004,25.807 197.487,25.906 197.066 C 26.005 196.645,26.285 195.957,26.527 195.536 C 26.770 195.115,27.227 194.082,27.542 193.240 C 28.205 191.473,28.773 190.157,30.585 186.197 C 30.880 185.550,31.122 184.884,31.122 184.716 C 31.122 184.549,31.352 183.959,31.633 183.405 C 31.913 182.851,32.372 181.945,32.653 181.391 C 32.934 180.837,33.163 180.137,33.163 179.837 C 33.163 179.536,33.393 178.998,33.673 178.641 C 33.954 178.284,34.184 177.830,34.184 177.631 C 34.184 177.432,34.413 176.816,34.694 176.262 C 34.974 175.708,35.434 174.802,35.714 174.248 C 35.995 173.694,36.224 172.995,36.224 172.694 C 36.224 172.393,36.454 171.855,36.735 171.498 C 37.015 171.141,37.245 170.687,37.245 170.488 C 37.245 170.289,37.459 169.702,37.722 169.183 C 38.850 166.950,39.287 165.914,39.286 165.474 C 39.286 165.215,39.515 164.712,39.796 164.355 C 40.077 163.999,40.306 163.539,40.306 163.333 C 40.306 163.127,40.765 161.993,41.327 160.811 C 41.888 159.630,42.347 158.483,42.347 158.262 C 42.347 158.042,42.577 157.569,42.857 157.212 C 43.138 156.856,43.367 156.372,43.367 156.137 C 43.367 155.901,43.760 154.912,44.239 153.939 C 44.719 152.965,45.196 151.824,45.299 151.403 C 45.402 150.982,45.698 150.364,45.957 150.029 C 46.567 149.243,46.554 148.314,45.918 147.127 C 45.638 146.604,45.408 146.031,45.407 145.856 C 45.406 145.680,44.947 144.629,44.387 143.522 C 43.826 142.414,43.367 141.323,43.366 141.098 C 43.365 140.873,43.136 140.344,42.857 139.923 C 42.578 139.503,42.350 138.963,42.349 138.724 C 42.348 138.485,41.888 137.418,41.327 136.352 C 40.765 135.286,40.305 134.219,40.304 133.980 C 40.304 133.741,40.075 133.202,39.796 132.781 C 39.517 132.360,39.288 131.820,39.287 131.581 C 39.286 131.342,38.827 130.275,38.265 129.209 C 37.704 128.144,37.244 127.076,37.243 126.837 C 37.242 126.599,37.013 126.059,36.735 125.638 C 36.456 125.217,36.227 124.666,36.226 124.413 C 36.225 124.160,35.999 123.529,35.724 123.010 C 35.449 122.491,34.979 121.492,34.680 120.791 C 34.381 120.089,33.917 119.091,33.650 118.572 C 33.382 118.053,33.163 117.444,33.163 117.219 C 33.163 116.994,32.949 116.386,32.687 115.867 C 32.424 115.348,31.956 114.349,31.647 113.648 C 31.337 112.946,30.863 111.948,30.593 111.429 C 30.323 110.910,30.101 110.279,30.100 110.026 C 30.099 109.773,29.871 109.222,29.592 108.801 C 29.313 108.380,29.084 107.864,29.082 107.653 C 29.081 107.443,28.621 106.364,28.060 105.256 C 27.500 104.149,27.040 103.058,27.039 102.833 C 27.038 102.608,26.809 102.079,26.531 101.658 C 26.252 101.237,26.019 100.721,26.014 100.510 C 26.009 100.300,25.722 99.554,25.377 98.852 C 25.032 98.151,24.749 97.447,24.747 97.289 C 24.746 97.131,24.573 96.858,24.362 96.684 C 24.152 96.509,23.979 96.122,23.978 95.823 C 23.977 95.525,23.748 94.936,23.469 94.515 C 23.191 94.094,22.961 93.520,22.959 93.240 C 22.957 92.959,22.728 92.385,22.449 91.964 C 22.170 91.543,21.941 91.027,21.939 90.816 C 21.938 90.606,21.478 89.527,20.917 88.420 C 20.357 87.312,19.897 86.221,19.896 85.996 C 19.895 85.771,19.667 85.242,19.388 84.821 C 19.109 84.401,18.880 83.861,18.879 83.622 C 18.878 83.383,18.418 82.316,17.857 81.250 C 17.296 80.184,16.836 79.117,16.835 78.878 C 16.834 78.639,16.605 78.099,16.327 77.679 C 16.048 77.258,15.819 76.718,15.818 76.479 C 15.817 76.240,15.357 75.173,14.796 74.107 C 14.235 73.042,13.775 71.974,13.774 71.735 C 13.773 71.496,13.544 70.957,13.265 70.536 C 12.987 70.115,12.758 69.564,12.757 69.311 C 12.756 69.058,12.530 68.427,12.255 67.908 C 11.979 67.389,11.510 66.390,11.210 65.689 C 10.911 64.987,10.448 63.989,10.180 63.470 C 9.913 62.951,9.694 62.342,9.694 62.117 C 9.694 61.892,9.479 61.284,9.217 60.765 C 8.955 60.246,8.487 59.247,8.177 58.546 C 7.868 57.844,7.394 56.846,7.124 56.327 C 6.854 55.808,6.632 55.177,6.631 54.924 C 6.630 54.671,6.401 54.120,6.122 53.699 C 5.844 53.278,5.614 52.761,5.613 52.551 C 5.611 52.341,5.151 51.262,4.591 50.154 C 4.030 49.047,3.571 47.956,3.570 47.731 C 3.569 47.506,3.340 46.977,3.061 46.556 C 2.782 46.135,2.554 45.617,2.553 45.404 C 2.552 45.192,2.314 44.576,2.025 44.036 C 1.735 43.496,1.560 42.895,1.634 42.700 C 1.750 42.399,9.147 42.355,50.694 42.410 L 99.617 42.474 99.681 133.276 C 99.730 202.055,99.818 224.122,100.043 224.261 C 100.206 224.362,100.615 224.340,100.952 224.212 C 101.305 224.078,111.704 223.980,125.509 223.980 C 151.546 223.980,150.223 223.907,150.275 225.337 C 150.289 225.717,150.342 225.772,150.441 225.510 C 150.521 225.300,150.713 225.043,150.867 224.940 C 151.234 224.695,248.766 224.695,249.133 224.940 C 249.287 225.043,249.479 225.300,249.559 225.510 C 249.658 225.772,249.711 225.717,249.725 225.337 C 249.777 223.888,248.342 223.963,275.344 223.987 L 300.128 224.009 300.255 133.242 L 300.383 42.474 349.306 42.410 C 392.963 42.353,398.246 42.388,398.379 42.735 C 398.461 42.949,398.127 43.954,397.637 44.968 C 397.147 45.982,396.665 47.098,396.568 47.449 C 396.470 47.800,396.152 48.603,395.862 49.235 C 395.571 49.866,395.133 50.842,394.888 51.403 C 394.644 51.964,394.201 52.953,393.905 53.599 C 393.609 54.246,393.368 54.877,393.368 55.002 C 393.369 55.225,392.751 56.593,391.803 58.469 C 391.541 58.988,391.327 59.691,391.327 60.032 C 391.327 60.373,391.159 60.791,390.954 60.961 C 390.749 61.131,390.510 61.518,390.424 61.822 C 390.256 62.413,389.515 64.083,388.742 65.612 C 388.480 66.131,388.265 66.834,388.265 67.175 C 388.265 67.516,388.098 67.934,387.893 68.104 C 387.688 68.274,387.449 68.661,387.363 68.964 C 387.195 69.556,386.453 71.226,385.681 72.755 C 385.419 73.273,385.204 73.944,385.204 74.245 C 385.204 74.546,384.974 75.084,384.694 75.441 C 384.413 75.797,384.184 76.257,384.184 76.462 C 384.184 76.667,384.019 77.139,383.818 77.512 C 383.145 78.758,382.143 81.180,382.143 81.559 C 382.143 81.766,381.913 82.227,381.633 82.583 C 381.352 82.940,381.122 83.424,381.122 83.659 C 381.122 83.894,380.730 84.883,380.250 85.857 C 379.771 86.831,379.294 87.972,379.191 88.393 C 379.088 88.814,378.792 89.432,378.533 89.767 C 378.273 90.101,378.061 90.567,378.061 90.802 C 378.061 91.037,377.669 92.026,377.189 93.000 C 376.710 93.974,376.233 95.115,376.130 95.536 C 376.027 95.957,375.731 96.575,375.471 96.909 C 375.212 97.244,375.000 97.747,375.000 98.027 C 375.000 98.307,374.787 98.895,374.526 99.332 C 374.265 99.770,373.789 100.816,373.468 101.658 C 373.147 102.500,372.655 103.705,372.374 104.337 C 372.094 104.968,371.664 105.944,371.419 106.505 C 371.174 107.066,370.732 108.055,370.436 108.701 C 370.140 109.348,369.898 109.980,369.899 110.104 C 369.899 110.327,369.282 111.696,368.334 113.571 C 368.072 114.090,367.857 114.793,367.857 115.134 C 367.857 115.475,367.689 115.893,367.484 116.063 C 367.279 116.233,367.041 116.621,366.955 116.924 C 366.786 117.515,366.045 119.185,365.273 120.714 C 365.010 121.233,364.796 121.936,364.796 122.277 C 364.796 122.618,364.628 123.036,364.423 123.206 C 364.218 123.376,363.980 123.763,363.894 124.066 C 363.725 124.658,362.984 126.328,362.211 127.857 C 361.949 128.376,361.735 129.046,361.735 129.347 C 361.735 129.648,361.505 130.186,361.224 130.543 C 360.944 130.899,360.714 131.359,360.714 131.564 C 360.714 131.769,360.550 132.241,360.349 132.614 C 359.676 133.860,358.673 136.282,358.673 136.662 C 358.673 136.868,358.444 137.329,358.163 137.685 C 357.883 138.042,357.653 138.526,357.653 138.761 C 357.653 138.996,357.261 139.985,356.781 140.959 C 356.301 141.933,355.825 143.074,355.722 143.495 C 355.619 143.916,355.322 144.534,355.063 144.869 C 354.804 145.203,354.591 145.720,354.590 146.017 C 354.589 146.313,354.360 146.901,354.082 147.321 C 353.446 148.281,353.446 148.626,354.082 149.872 C 354.362 150.423,354.592 151.027,354.592 151.215 C 354.592 151.403,354.806 151.982,355.069 152.500 C 355.331 153.019,355.768 153.960,356.041 154.592 C 356.314 155.223,356.789 156.256,357.096 156.888 C 357.403 157.519,357.655 158.208,357.655 158.418 C 357.656 158.629,357.885 159.145,358.163 159.566 C 358.442 159.987,358.671 160.511,358.672 160.729 C 358.673 160.948,359.131 162.038,359.690 163.153 C 360.249 164.267,360.709 165.351,360.712 165.561 C 360.715 165.772,360.946 166.288,361.224 166.709 C 361.503 167.130,361.732 167.653,361.733 167.872 C 361.734 168.091,362.192 169.181,362.751 170.295 C 363.310 171.410,363.770 172.494,363.773 172.704 C 363.776 172.915,364.007 173.431,364.286 173.852 C 364.564 174.273,364.794 174.847,364.795 175.128 C 364.797 175.408,365.027 176.014,365.307 176.473 C 365.587 176.932,365.816 177.462,365.816 177.650 C 365.816 177.838,366.046 178.284,366.327 178.641 C 366.607 178.998,366.837 179.501,366.838 179.760 C 366.839 180.018,367.068 180.574,367.347 180.995 C 367.626 181.416,367.855 181.990,367.856 182.270 C 367.858 182.551,368.088 183.156,368.368 183.616 C 368.648 184.075,368.878 184.592,368.879 184.764 C 368.879 184.936,369.338 185.983,369.899 187.091 C 370.460 188.198,370.919 189.289,370.919 189.514 C 370.920 189.739,371.149 190.299,371.430 190.759 C 371.710 191.218,371.939 191.758,371.939 191.958 C 371.939 192.159,372.398 193.195,372.959 194.260 C 373.520 195.326,373.980 196.393,373.981 196.632 C 373.981 196.871,374.211 197.442,374.491 197.902 C 374.771 198.361,375.000 198.883,375.000 199.062 C 375.000 199.241,375.459 200.324,376.020 201.469 C 376.582 202.614,377.041 203.699,377.042 203.880 C 377.042 204.061,377.272 204.585,377.552 205.044 C 377.832 205.504,378.061 206.055,378.061 206.269 C 378.061 206.484,378.276 207.084,378.538 207.603 C 378.800 208.121,379.254 209.094,379.548 209.763 C 379.841 210.433,380.315 211.466,380.602 212.059 C 380.889 212.652,381.124 213.310,381.125 213.520 C 381.125 213.731,381.354 214.247,381.633 214.668 C 381.911 215.089,382.140 215.613,382.141 215.831 C 382.142 216.050,382.600 217.140,383.159 218.255 C 383.719 219.369,384.179 220.453,384.182 220.663 C 384.185 220.874,384.415 221.390,384.694 221.811 C 384.973 222.232,385.201 222.755,385.202 222.974 C 385.203 223.193,385.662 224.283,386.221 225.398 C 386.780 226.512,387.240 227.596,387.243 227.806 C 387.246 228.017,387.476 228.533,387.755 228.954 C 388.034 229.375,388.263 229.949,388.265 230.230 C 388.266 230.510,388.496 231.116,388.776 231.575 C 389.057 232.034,389.286 232.564,389.286 232.752 C 389.286 232.941,389.515 233.386,389.796 233.743 C 390.077 234.100,390.307 234.603,390.308 234.862 C 390.309 235.120,390.538 235.676,390.816 236.097 C 391.095 236.518,391.324 237.092,391.326 237.372 C 391.327 237.653,391.558 238.259,391.838 238.718 C 392.118 239.177,392.347 239.694,392.348 239.866 C 392.349 240.038,392.808 241.085,393.368 242.193 C 393.929 243.300,394.388 244.391,394.389 244.616 C 394.389 244.841,394.619 245.401,394.899 245.861 C 395.179 246.320,395.408 246.860,395.408 247.060 C 395.408 247.261,395.867 248.297,396.429 249.362 C 396.990 250.428,397.449 251.495,397.450 251.734 C 397.450 251.973,397.680 252.544,397.960 253.004 C 398.240 253.463,398.469 254.123,398.469 254.470 C 398.469 255.002,398.590 255.102,399.235 255.102 C 399.943 255.102,400.344 254.519,399.791 254.294 C 399.541 254.193,397.960 251.059,397.958 250.661 C 397.957 250.508,397.773 250.038,397.549 249.617 C 397.325 249.196,396.795 247.991,396.370 246.939 C 395.946 245.886,395.441 244.799,395.248 244.522 C 395.056 244.246,394.897 243.844,394.896 243.629 C 394.896 243.415,394.717 242.899,394.500 242.482 C 394.283 242.066,393.760 240.865,393.339 239.813 C 392.918 238.761,392.479 237.782,392.364 237.637 C 392.249 237.491,392.071 237.085,391.969 236.735 C 391.867 236.384,391.578 235.638,391.327 235.077 C 391.076 234.515,390.391 232.908,389.804 231.505 C 389.217 230.102,388.516 228.530,388.246 228.011 C 387.976 227.492,387.755 226.895,387.755 226.685 C 387.755 226.475,387.497 225.809,387.181 225.205 C 386.865 224.601,386.435 223.648,386.224 223.087 C 386.014 222.526,385.584 221.572,385.268 220.969 C 384.952 220.365,384.694 219.699,384.694 219.489 C 384.694 219.278,384.467 218.682,384.190 218.163 C 383.913 217.644,383.522 216.818,383.322 216.327 C 383.122 215.835,382.660 214.781,382.295 213.983 C 381.931 213.185,381.633 212.404,381.633 212.247 C 381.633 212.091,381.406 211.539,381.129 211.020 C 380.852 210.501,380.460 209.675,380.258 209.184 C 380.056 208.693,379.585 207.545,379.210 206.633 C 378.835 205.721,378.316 204.515,378.057 203.954 C 377.798 203.393,377.116 201.786,376.541 200.383 C 375.966 198.980,375.270 197.407,374.993 196.888 C 374.716 196.369,374.489 195.795,374.488 195.613 C 374.487 195.430,374.303 194.936,374.080 194.515 C 373.856 194.094,373.325 192.889,372.901 191.837 C 372.476 190.784,371.972 189.697,371.779 189.420 C 371.586 189.144,371.428 188.742,371.427 188.527 C 371.426 188.313,371.248 187.797,371.031 187.380 C 370.813 186.964,370.291 185.763,369.870 184.711 C 369.449 183.659,369.010 182.680,368.895 182.535 C 368.779 182.389,368.602 181.983,368.500 181.633 C 368.398 181.282,368.109 180.536,367.858 179.974 C 367.607 179.413,366.921 177.806,366.334 176.403 C 365.748 175.000,365.047 173.428,364.777 172.909 C 364.507 172.390,364.286 171.793,364.286 171.583 C 364.286 171.373,364.027 170.707,363.712 170.103 C 363.396 169.499,362.966 168.546,362.755 167.985 C 362.545 167.423,362.114 166.470,361.798 165.867 C 361.483 165.263,361.224 164.609,361.224 164.413 C 361.224 164.218,360.966 163.564,360.651 162.960 C 360.335 162.356,359.904 161.403,359.694 160.842 C 359.483 160.281,359.053 159.327,358.737 158.724 C 358.422 158.120,358.163 157.454,358.163 157.244 C 358.163 157.033,357.937 156.437,357.659 155.918 C 357.382 155.399,356.965 154.515,356.733 153.954 C 356.500 153.393,356.098 152.472,355.839 151.907 C 354.427 148.832,354.459 148.271,356.266 144.442 C 356.748 143.419,357.144 142.443,357.145 142.273 C 357.145 142.103,357.374 141.620,357.653 141.199 C 357.932 140.778,358.161 140.285,358.162 140.103 C 358.163 139.921,358.565 138.914,359.056 137.865 C 359.547 136.816,359.949 135.894,359.949 135.815 C 359.949 135.670,361.222 132.642,361.868 131.250 C 362.063 130.829,362.694 129.337,363.268 127.934 C 363.843 126.531,364.537 124.958,364.810 124.439 C 365.083 123.920,365.306 123.368,365.306 123.212 C 365.306 123.056,365.765 121.952,366.327 120.760 C 366.888 119.568,367.348 118.456,367.349 118.288 C 367.350 118.121,367.578 117.640,367.857 117.219 C 368.136 116.798,368.365 116.304,368.366 116.120 C 368.367 115.936,368.827 114.810,369.388 113.617 C 369.949 112.425,370.408 111.355,370.408 111.240 C 370.408 111.125,370.708 110.357,371.074 109.533 C 372.917 105.389,373.289 104.527,373.980 102.806 C 374.289 102.034,374.750 100.944,375.004 100.383 C 375.257 99.821,375.942 98.214,376.527 96.811 C 377.111 95.408,377.810 93.836,378.080 93.317 C 378.350 92.798,378.571 92.246,378.571 92.089 C 378.571 91.933,379.031 90.830,379.592 89.638 C 380.153 88.445,380.613 87.333,380.614 87.166 C 380.615 86.999,380.844 86.518,381.122 86.097 C 381.401 85.676,381.630 85.183,381.631 85.001 C 381.632 84.819,382.034 83.812,382.526 82.763 C 383.017 81.714,383.418 80.792,383.418 80.713 C 383.418 80.568,384.691 77.540,385.337 76.148 C 385.533 75.727,386.163 74.235,386.738 72.832 C 387.313 71.429,388.006 69.856,388.279 69.337 C 388.552 68.818,388.776 68.266,388.776 68.110 C 388.776 67.954,389.235 66.850,389.796 65.658 C 390.357 64.466,390.817 63.354,390.818 63.186 C 390.819 63.019,391.048 62.538,391.327 62.117 C 391.605 61.696,391.834 61.202,391.835 61.018 C 391.836 60.834,392.296 59.708,392.857 58.515 C 393.418 57.323,393.878 56.253,393.878 56.138 C 393.878 56.023,394.177 55.255,394.544 54.431 C 396.387 50.287,396.759 49.425,397.449 47.704 C 397.759 46.932,398.219 45.842,398.471 45.281 C 398.723 44.719,399.053 43.945,399.204 43.559 C 399.355 43.173,399.596 42.857,399.739 42.857 C 400.155 42.857,400.040 42.162,399.596 41.992 C 399.375 41.906,377.097 41.837,350.090 41.837 C 316.730 41.837,300.829 41.752,300.493 41.573 C 300.012 41.315,300.000 40.823,300.000 21.471 C 300.000 6.381,299.927 1.559,299.694 1.327 C 299.248 0.880,100.752 0.880,100.306 1.327 M215.591 40.276 L 216.582 41.267 216.582 117.067 L 216.582 192.867 215.948 193.872 C 214.949 195.453,215.337 195.408,202.712 195.408 C 189.740 195.408,190.086 195.453,189.167 193.641 L 188.520 192.364 188.520 131.274 C 188.520 95.663,188.425 70.124,188.292 70.042 C 188.167 69.965,187.652 70.074,187.147 70.285 C 186.638 70.497,185.009 70.733,183.485 70.815 C 181.975 70.897,180.148 71.125,179.425 71.323 C 175.961 72.273,173.488 71.296,172.964 68.771 C 172.381 65.963,172.719 46.616,173.367 45.745 C 174.374 44.390,176.479 43.647,179.799 43.473 C 181.299 43.395,183.049 43.171,183.689 42.977 C 184.329 42.782,186.224 42.512,187.898 42.376 C 189.573 42.240,191.267 42.006,191.661 41.855 C 192.056 41.705,193.548 41.513,194.978 41.428 C 196.407 41.343,198.139 41.114,198.826 40.920 C 199.514 40.725,201.178 40.499,202.525 40.416 C 203.872 40.333,205.548 40.104,206.250 39.907 C 207.843 39.459,208.645 39.378,211.956 39.327 L 214.601 39.286 215.591 40.276 " stroke="none" fill="#d4c074" fill-rule="evenodd"></path><path id="path1" d="M209.311 40.334 C 201.890 41.431,199.033 41.830,197.577 41.972 C 196.735 42.055,195.128 42.279,194.005 42.471 C 192.883 42.664,191.103 42.894,190.051 42.984 C 188.999 43.074,187.659 43.253,187.073 43.382 C 186.488 43.510,184.893 43.740,183.529 43.892 C 176.088 44.722,174.522 45.202,173.817 46.867 C 173.246 48.216,173.316 67.839,173.896 69.062 C 174.724 70.807,177.602 70.995,184.442 69.752 C 185.637 69.535,187.244 69.393,188.014 69.436 L 189.413 69.515 189.541 131.250 C 189.611 165.204,189.759 193.157,189.871 193.367 C 190.616 194.778,190.545 194.770,202.562 194.770 C 214.760 194.770,214.722 194.775,215.318 193.210 C 215.649 192.337,215.649 42.357,215.318 41.484 C 214.730 39.938,213.536 39.709,209.311 40.334 M101.661 225.250 C 101.469 225.560,101.966 226.531,102.317 226.531 C 102.459 226.531,103.230 226.965,104.030 227.496 C 104.830 228.027,106.157 228.860,106.980 229.346 C 107.802 229.832,108.854 230.459,109.319 230.740 C 109.783 231.020,110.890 231.689,111.778 232.226 C 112.666 232.762,114.196 233.708,115.179 234.328 C 116.161 234.947,117.251 235.597,117.602 235.771 C 117.953 235.946,118.770 236.463,119.418 236.922 C 120.066 237.380,120.675 237.755,120.770 237.755 C 120.865 237.755,121.598 238.190,122.398 238.721 C 123.198 239.252,124.525 240.084,125.347 240.570 C 126.169 241.056,127.222 241.684,127.686 241.964 C 128.151 242.245,129.257 242.914,130.145 243.450 C 131.034 243.987,132.564 244.933,133.546 245.552 C 134.528 246.172,135.619 246.821,135.969 246.996 C 136.320 247.170,137.137 247.688,137.786 248.146 C 138.434 248.605,139.042 248.980,139.137 248.980 C 139.233 248.980,139.965 249.414,140.765 249.945 C 141.565 250.476,142.851 251.284,143.622 251.739 C 147.320 253.923,148.469 254.670,148.469 254.890 C 148.469 255.684,149.692 255.018,149.836 254.145 C 150.102 252.535,150.024 226.373,149.751 225.654 L 149.502 225.000 125.659 225.000 C 110.374 225.000,101.760 225.090,101.661 225.250 M250.249 225.653 C 249.975 226.375,249.892 252.965,250.159 254.305 C 250.310 255.055,251.531 255.562,251.531 254.874 C 251.531 254.748,253.774 253.285,256.517 251.621 C 259.259 249.958,261.985 248.283,262.575 247.900 C 263.165 247.516,263.820 247.114,264.031 247.006 C 264.439 246.796,268.246 244.516,269.253 243.878 C 269.586 243.667,272.110 242.117,274.864 240.434 C 277.617 238.750,280.353 237.059,280.943 236.675 C 281.533 236.291,282.168 235.903,282.355 235.811 C 282.541 235.719,283.689 235.028,284.906 234.275 C 286.122 233.522,287.347 232.788,287.628 232.644 C 290.591 231.124,298.342 226.046,298.342 225.624 C 298.342 225.136,297.934 225.126,274.420 225.062 L 250.499 224.997 250.249 225.653 " stroke="none" fill="#2e2828" fill-rule="evenodd"></path><path id="path2" d="M208.418 39.458 C 207.927 39.508,206.952 39.710,206.250 39.907 C 205.548 40.104,203.872 40.333,202.525 40.416 C 201.178 40.499,199.514 40.725,198.826 40.920 C 198.139 41.114,196.407 41.343,194.978 41.428 C 193.548 41.513,192.056 41.705,191.661 41.855 C 191.267 42.006,189.573 42.240,187.898 42.376 C 186.224 42.512,184.329 42.782,183.689 42.977 C 183.049 43.171,181.299 43.395,179.799 43.473 C 176.479 43.647,174.374 44.390,173.367 45.745 C 172.719 46.616,172.381 65.963,172.964 68.771 C 173.488 71.296,175.961 72.273,179.425 71.323 C 180.148 71.125,181.975 70.897,183.485 70.815 C 185.009 70.733,186.638 70.497,187.147 70.285 C 187.652 70.074,188.167 69.965,188.292 70.042 C 188.425 70.124,188.520 95.663,188.520 131.274 L 188.520 192.364 189.167 193.641 C 190.086 195.453,189.740 195.408,202.712 195.408 C 215.337 195.408,214.949 195.453,215.948 193.872 L 216.582 192.867 216.582 117.067 L 216.582 41.267 215.591 40.276 L 214.601 39.286 211.956 39.327 C 210.501 39.349,208.909 39.408,208.418 39.458 M214.488 40.464 C 214.810 40.673,215.183 41.131,215.318 41.484 C 215.649 42.357,215.649 192.337,215.318 193.210 C 214.722 194.775,214.760 194.770,202.562 194.770 C 190.545 194.770,190.616 194.778,189.871 193.367 C 189.759 193.157,189.611 165.204,189.541 131.250 L 189.413 69.515 188.014 69.436 C 187.244 69.393,185.637 69.535,184.442 69.752 C 177.602 70.995,174.724 70.807,173.896 69.062 C 173.316 67.839,173.246 48.216,173.817 46.867 C 174.522 45.202,176.088 44.722,183.529 43.892 C 184.893 43.740,186.488 43.510,187.073 43.382 C 187.659 43.253,188.999 43.074,190.051 42.984 C 191.103 42.894,192.883 42.664,194.005 42.471 C 195.128 42.279,196.735 42.055,197.577 41.972 C 199.033 41.830,201.890 41.431,209.311 40.334 C 212.781 39.821,213.523 39.839,214.488 40.464 M1.634 42.700 C 1.560 42.895,1.735 43.496,2.025 44.036 C 2.314 44.576,2.552 45.192,2.553 45.404 C 2.554 45.617,2.782 46.135,3.061 46.556 C 3.340 46.977,3.569 47.506,3.570 47.731 C 3.571 47.956,4.030 49.047,4.591 50.154 C 5.151 51.262,5.611 52.341,5.613 52.551 C 5.614 52.761,5.844 53.278,6.122 53.699 C 6.401 54.120,6.630 54.671,6.631 54.924 C 6.632 55.177,6.854 55.808,7.124 56.327 C 7.394 56.846,7.868 57.844,8.177 58.546 C 8.487 59.247,8.955 60.246,9.217 60.765 C 9.479 61.284,9.694 61.892,9.694 62.117 C 9.694 62.342,9.913 62.951,10.180 63.470 C 10.448 63.989,10.911 64.987,11.210 65.689 C 11.510 66.390,11.979 67.389,12.255 67.908 C 12.530 68.427,12.756 69.058,12.757 69.311 C 12.758 69.564,12.987 70.115,13.265 70.536 C 13.544 70.957,13.773 71.496,13.774 71.735 C 13.775 71.974,14.235 73.042,14.796 74.107 C 15.357 75.173,15.817 76.240,15.818 76.479 C 15.819 76.718,16.048 77.258,16.327 77.679 C 16.605 78.099,16.834 78.639,16.835 78.878 C 16.836 79.117,17.296 80.184,17.857 81.250 C 18.418 82.316,18.878 83.383,18.879 83.622 C 18.880 83.861,19.109 84.401,19.388 84.821 C 19.667 85.242,19.895 85.771,19.896 85.996 C 19.897 86.221,20.357 87.312,20.917 88.420 C 21.478 89.527,21.938 90.606,21.939 90.816 C 21.941 91.027,22.170 91.543,22.449 91.964 C 22.728 92.385,22.957 92.959,22.959 93.240 C 22.961 93.520,23.191 94.094,23.469 94.515 C 23.748 94.936,23.977 95.525,23.978 95.823 C 23.979 96.122,24.152 96.509,24.362 96.684 C 24.573 96.858,24.746 97.131,24.747 97.289 C 24.749 97.447,25.032 98.151,25.377 98.852 C 25.722 99.554,26.009 100.300,26.014 100.510 C 26.019 100.721,26.252 101.237,26.531 101.658 C 26.809 102.079,27.038 102.608,27.039 102.833 C 27.040 103.058,27.500 104.149,28.060 105.256 C 28.621 106.364,29.081 107.443,29.082 107.653 C 29.084 107.864,29.313 108.380,29.592 108.801 C 29.871 109.222,30.099 109.773,30.100 110.026 C 30.101 110.279,30.323 110.910,30.593 111.429 C 30.863 111.948,31.337 112.946,31.647 113.648 C 31.956 114.349,32.424 115.348,32.687 115.867 C 32.949 116.386,33.163 116.994,33.163 117.219 C 33.163 117.444,33.382 118.053,33.650 118.572 C 33.917 119.091,34.381 120.089,34.680 120.791 C 34.979 121.492,35.449 122.491,35.724 123.010 C 35.999 123.529,36.225 124.160,36.226 124.413 C 36.227 124.666,36.456 125.217,36.735 125.638 C 37.013 126.059,37.242 126.599,37.243 126.837 C 37.244 127.076,37.704 128.144,38.265 129.209 C 38.827 130.275,39.286 131.342,39.287 131.581 C 39.288 131.820,39.517 132.360,39.796 132.781 C 40.075 133.202,40.304 133.741,40.304 133.980 C 40.305 134.219,40.765 135.286,41.327 136.352 C 41.888 137.418,42.348 138.485,42.349 138.724 C 42.350 138.963,42.578 139.503,42.857 139.923 C 43.136 140.344,43.365 140.873,43.366 141.098 C 43.367 141.323,43.826 142.414,44.387 143.522 C 44.947 144.629,45.406 145.680,45.407 145.856 C 45.408 146.031,45.638 146.604,45.918 147.127 C 46.554 148.314,46.567 149.243,45.957 150.029 C 45.698 150.364,45.402 150.982,45.299 151.403 C 45.196 151.824,44.719 152.965,44.239 153.939 C 43.760 154.912,43.367 155.901,43.367 156.137 C 43.367 156.372,43.138 156.856,42.857 157.212 C 42.577 157.569,42.347 158.042,42.347 158.262 C 42.347 158.483,41.888 159.630,41.327 160.811 C 40.765 161.993,40.306 163.127,40.306 163.333 C 40.306 163.539,40.077 163.999,39.796 164.355 C 39.515 164.712,39.286 165.215,39.286 165.474 C 39.287 165.914,38.850 166.950,37.722 169.183 C 37.459 169.702,37.245 170.289,37.245 170.488 C 37.245 170.687,37.015 171.141,36.735 171.498 C 36.454 171.855,36.224 172.393,36.224 172.694 C 36.224 172.995,35.995 173.694,35.714 174.248 C 35.434 174.802,34.974 175.708,34.694 176.262 C 34.413 176.816,34.184 177.432,34.184 177.631 C 34.184 177.830,33.954 178.284,33.673 178.641 C 33.393 178.998,33.163 179.536,33.163 179.837 C 33.163 180.137,32.934 180.837,32.653 181.391 C 32.372 181.945,31.913 182.851,31.633 183.405 C 31.352 183.959,31.122 184.549,31.122 184.716 C 31.122 184.884,30.880 185.550,30.585 186.197 C 30.289 186.843,29.845 187.832,29.599 188.393 C 29.353 188.954,28.918 189.930,28.634 190.561 C 28.349 191.193,27.858 192.398,27.542 193.240 C 27.227 194.082,26.770 195.115,26.527 195.536 C 26.285 195.957,26.005 196.645,25.906 197.066 C 25.807 197.487,25.578 198.004,25.397 198.214 C 25.216 198.425,24.986 198.941,24.886 199.362 C 24.786 199.783,24.311 200.924,23.831 201.898 C 23.352 202.872,22.959 203.861,22.959 204.096 C 22.959 204.331,22.747 204.797,22.488 205.131 C 22.229 205.466,21.932 206.084,21.829 206.505 C 21.726 206.926,21.250 208.067,20.770 209.041 C 20.290 210.015,19.898 211.004,19.898 211.239 C 19.898 211.474,19.668 211.958,19.388 212.315 C 19.107 212.671,18.878 213.144,18.878 213.364 C 18.878 213.585,18.418 214.732,17.857 215.913 C 17.296 217.095,16.837 218.229,16.837 218.435 C 16.837 218.641,16.607 219.101,16.327 219.457 C 16.046 219.814,15.817 220.317,15.817 220.576 C 15.818 221.016,15.381 222.052,14.252 224.285 C 13.990 224.804,13.776 225.391,13.776 225.590 C 13.776 225.789,13.546 226.243,13.265 226.600 C 12.985 226.957,12.755 227.495,12.755 227.796 C 12.755 228.097,12.526 228.796,12.245 229.350 C 11.964 229.904,11.505 230.810,11.224 231.364 C 10.944 231.918,10.714 232.534,10.714 232.733 C 10.714 232.932,10.485 233.386,10.204 233.743 C 9.923 234.100,9.694 234.638,9.694 234.939 C 9.694 235.240,9.448 235.968,9.147 236.557 C 7.867 239.063,7.653 239.530,7.653 239.819 C 7.653 239.986,7.411 240.652,7.115 241.299 C 6.819 241.945,6.360 242.962,6.095 243.559 C 5.829 244.155,5.395 245.131,5.129 245.727 C 4.864 246.323,4.388 247.500,4.073 248.342 C 3.757 249.184,3.301 250.217,3.058 250.638 C 2.815 251.059,2.535 251.747,2.436 252.168 C 2.337 252.589,2.108 253.106,1.928 253.316 C 1.747 253.527,1.524 254.015,1.432 254.401 L 1.266 255.102 74.868 255.102 C 115.349 255.102,148.469 255.007,148.469 254.890 C 148.469 254.670,147.320 253.923,143.622 251.739 C 142.851 251.284,141.565 250.476,140.765 249.945 C 139.965 249.414,139.233 248.980,139.137 248.980 C 139.042 248.980,138.434 248.605,137.786 248.146 C 137.137 247.688,136.320 247.170,135.969 246.996 C 135.619 246.821,134.528 246.172,133.546 245.552 C 132.564 244.933,131.034 243.987,130.145 243.450 C 129.257 242.914,128.151 242.245,127.686 241.964 C 127.222 241.684,126.169 241.056,125.347 240.570 C 124.525 240.084,123.198 239.252,122.398 238.721 C 121.598 238.190,120.865 237.755,120.770 237.755 C 120.675 237.755,120.066 237.380,119.418 236.922 C 118.770 236.463,117.953 235.946,117.602 235.771 C 117.251 235.597,116.161 234.947,115.179 234.328 C 114.196 233.708,112.666 232.762,111.778 232.226 C 110.890 231.689,109.783 231.020,109.319 230.740 C 108.854 230.459,107.802 229.832,106.980 229.346 C 106.157 228.860,104.830 228.027,104.030 227.496 C 103.230 226.965,102.459 226.531,102.317 226.531 C 101.966 226.531,101.469 225.560,101.661 225.250 C 101.760 225.090,110.374 225.000,125.659 225.000 L 149.502 225.000 149.763 225.685 C 149.932 226.131,149.997 231.392,149.948 240.736 C 149.906 248.638,149.959 255.102,150.064 255.102 C 150.492 255.102,150.286 224.812,149.854 224.380 C 149.392 223.918,102.153 223.756,100.952 224.212 C 100.615 224.340,100.206 224.362,100.043 224.261 C 99.818 224.122,99.730 202.055,99.681 133.276 L 99.617 42.474 50.694 42.410 C 9.147 42.355,1.750 42.399,1.634 42.700 M300.374 42.666 C 300.307 42.841,300.225 83.715,300.190 133.497 L 300.128 224.009 275.344 223.987 C 252.952 223.967,250.522 224.005,250.153 224.373 C 249.715 224.811,249.502 255.102,249.936 255.102 C 250.041 255.102,250.094 248.635,250.054 240.732 C 250.006 231.435,250.072 226.120,250.239 225.679 L 250.499 224.997 274.420 225.062 C 297.934 225.126,298.342 225.136,298.342 225.624 C 298.342 226.046,290.591 231.124,287.628 232.644 C 287.347 232.788,286.122 233.522,284.906 234.275 C 283.689 235.028,282.541 235.719,282.355 235.811 C 282.168 235.903,281.533 236.291,280.943 236.675 C 280.353 237.059,277.617 238.750,274.864 240.434 C 272.110 242.117,269.586 243.667,269.253 243.878 C 268.246 244.516,264.439 246.796,264.031 247.006 C 263.820 247.114,263.165 247.516,262.575 247.900 C 261.985 248.283,259.259 249.958,256.517 251.621 C 253.774 253.285,251.531 254.748,251.531 254.874 C 251.531 255.008,281.942 255.102,325.000 255.102 L 398.469 255.102 398.469 254.470 C 398.469 254.123,398.240 253.463,397.960 253.004 C 397.680 252.544,397.450 251.973,397.450 251.734 C 397.449 251.495,396.990 250.428,396.429 249.362 C 395.867 248.297,395.408 247.261,395.408 247.060 C 395.408 246.860,395.179 246.320,394.899 245.861 C 394.619 245.401,394.389 244.841,394.389 244.616 C 394.388 244.391,393.929 243.300,393.368 242.193 C 392.808 241.085,392.349 240.038,392.348 239.866 C 392.347 239.694,392.118 239.177,391.838 238.718 C 391.558 238.259,391.327 237.653,391.326 237.372 C 391.324 237.092,391.095 236.518,390.816 236.097 C 390.538 235.676,390.309 235.120,390.308 234.862 C 390.307 234.603,390.077 234.100,389.796 233.743 C 389.515 233.386,389.286 232.941,389.286 232.752 C 389.286 232.564,389.057 232.034,388.776 231.575 C 388.496 231.116,388.266 230.510,388.265 230.230 C 388.263 229.949,388.034 229.375,387.755 228.954 C 387.476 228.533,387.246 228.017,387.243 227.806 C 387.240 227.596,386.780 226.512,386.221 225.398 C 385.662 224.283,385.203 223.193,385.202 222.974 C 385.201 222.755,384.973 222.232,384.694 221.811 C 384.415 221.390,384.185 220.874,384.182 220.663 C 384.179 220.453,383.719 219.369,383.159 218.255 C 382.600 217.140,382.142 216.050,382.141 215.831 C 382.140 215.613,381.911 215.089,381.633 214.668 C 381.354 214.247,381.125 213.731,381.125 213.520 C 381.124 213.310,380.872 212.621,380.565 211.990 C 380.258 211.358,379.783 210.325,379.511 209.694 C 379.238 209.063,378.800 208.121,378.538 207.603 C 378.276 207.084,378.061 206.484,378.061 206.269 C 378.061 206.055,377.832 205.504,377.552 205.044 C 377.272 204.585,377.042 204.061,377.042 203.880 C 377.041 203.699,376.582 202.614,376.020 201.469 C 375.459 200.324,375.000 199.241,375.000 199.062 C 375.000 198.883,374.771 198.361,374.491 197.902 C 374.211 197.442,373.981 196.871,373.981 196.632 C 373.980 196.393,373.520 195.326,372.959 194.260 C 372.398 193.195,371.939 192.159,371.939 191.958 C 371.939 191.758,371.710 191.218,371.430 190.759 C 371.149 190.299,370.920 189.739,370.919 189.514 C 370.919 189.289,370.460 188.198,369.899 187.091 C 369.338 185.983,368.879 184.936,368.879 184.764 C 368.878 184.592,368.648 184.075,368.368 183.616 C 368.088 183.156,367.858 182.551,367.856 182.270 C 367.855 181.990,367.626 181.416,367.347 180.995 C 367.068 180.574,366.839 180.018,366.838 179.760 C 366.837 179.501,366.607 178.998,366.327 178.641 C 366.046 178.284,365.816 177.838,365.816 177.650 C 365.816 177.462,365.587 176.932,365.307 176.473 C 365.027 176.014,364.797 175.408,364.795 175.128 C 364.794 174.847,364.564 174.273,364.286 173.852 C 364.007 173.431,363.776 172.915,363.773 172.704 C 363.770 172.494,363.310 171.410,362.751 170.295 C 362.192 169.181,361.734 168.091,361.733 167.872 C 361.732 167.653,361.503 167.130,361.224 166.709 C 360.946 166.288,360.715 165.772,360.712 165.561 C 360.709 165.351,360.249 164.267,359.690 163.153 C 359.131 162.038,358.673 160.948,358.672 160.729 C 358.671 160.511,358.442 159.987,358.163 159.566 C 357.885 159.145,357.656 158.629,357.655 158.418 C 357.655 158.208,357.420 157.550,357.133 156.957 C 356.846 156.364,356.371 155.331,356.078 154.661 C 355.785 153.992,355.331 153.019,355.069 152.500 C 354.806 151.982,354.592 151.403,354.592 151.215 C 354.592 151.027,354.362 150.423,354.082 149.872 C 353.446 148.626,353.446 148.281,354.082 147.321 C 354.360 146.901,354.589 146.313,354.590 146.017 C 354.591 145.720,354.804 145.203,355.063 144.869 C 355.322 144.534,355.619 143.916,355.722 143.495 C 355.825 143.074,356.301 141.933,356.781 140.959 C 357.261 139.985,357.653 138.996,357.653 138.761 C 357.653 138.526,357.883 138.042,358.163 137.685 C 358.444 137.329,358.673 136.868,358.673 136.662 C 358.673 136.282,359.676 133.860,360.349 132.614 C 360.550 132.241,360.714 131.769,360.714 131.564 C 360.714 131.359,360.944 130.899,361.224 130.543 C 361.505 130.186,361.735 129.648,361.735 129.347 C 361.735 129.046,361.949 128.376,362.211 127.857 C 362.984 126.328,363.725 124.658,363.894 124.066 C 363.980 123.763,364.218 123.376,364.423 123.206 C 364.628 123.036,364.796 122.618,364.796 122.277 C 364.796 121.936,365.010 121.233,365.273 120.714 C 366.045 119.185,366.786 117.515,366.955 116.924 C 367.041 116.621,367.279 116.233,367.484 116.063 C 367.689 115.893,367.857 115.475,367.857 115.134 C 367.857 114.793,368.072 114.090,368.334 113.571 C 369.282 111.696,369.899 110.327,369.899 110.104 C 369.898 109.980,370.140 109.348,370.436 108.701 C 370.732 108.055,371.174 107.066,371.419 106.505 C 371.664 105.944,372.094 104.968,372.374 104.337 C 372.655 103.705,373.147 102.500,373.468 101.658 C 373.789 100.816,374.265 99.770,374.526 99.332 C 374.787 98.895,375.000 98.307,375.000 98.027 C 375.000 97.747,375.212 97.244,375.471 96.909 C 375.731 96.575,376.027 95.957,376.130 95.536 C 376.233 95.115,376.710 93.974,377.189 93.000 C 377.669 92.026,378.061 91.037,378.061 90.802 C 378.061 90.567,378.273 90.101,378.533 89.767 C 378.792 89.432,379.088 88.814,379.191 88.393 C 379.294 87.972,379.771 86.831,380.250 85.857 C 380.730 84.883,381.122 83.894,381.122 83.659 C 381.122 83.424,381.352 82.940,381.633 82.583 C 381.913 82.227,382.143 81.766,382.143 81.559 C 382.143 81.180,383.145 78.758,383.818 77.512 C 384.019 77.139,384.184 76.667,384.184 76.462 C 384.184 76.257,384.413 75.797,384.694 75.441 C 384.974 75.084,385.204 74.546,385.204 74.245 C 385.204 73.944,385.419 73.273,385.681 72.755 C 386.453 71.226,387.195 69.556,387.363 68.964 C 387.449 68.661,387.688 68.274,387.893 68.104 C 388.098 67.934,388.265 67.516,388.265 67.175 C 388.265 66.834,388.480 66.131,388.742 65.612 C 389.515 64.083,390.256 62.413,390.424 61.822 C 390.510 61.518,390.749 61.131,390.954 60.961 C 391.159 60.791,391.327 60.373,391.327 60.032 C 391.327 59.691,391.541 58.988,391.803 58.469 C 392.751 56.593,393.369 55.225,393.368 55.002 C 393.368 54.877,393.609 54.246,393.905 53.599 C 394.201 52.953,394.644 51.964,394.888 51.403 C 395.133 50.842,395.571 49.866,395.862 49.235 C 396.152 48.603,396.470 47.800,396.568 47.449 C 396.665 47.098,397.147 45.982,397.637 44.968 C 398.127 43.954,398.461 42.949,398.379 42.735 C 398.176 42.205,300.574 42.135,300.374 42.666 " stroke="none" fill="#c9b56f" fill-rule="evenodd"></path></g></svg>